<svg width="260" height="198" viewBox="0 0 260 198" fill="none" xmlns="http://www.w3.org/2000/svg">
<g clip-path="url(#clip0_98_58)">
<path d="M257.544 75.9999C257.451 76 257.361 75.9757 257.284 75.9303L131.351 1.12328C130.968 0.896691 130.513 0.775596 130.046 0.776275C129.58 0.776953 129.125 0.89937 128.743 1.12708L3.71698 75.9296C3.61809 75.9887 3.4957 76.012 3.37672 75.9941C3.25775 75.9763 3.15194 75.9189 3.08258 75.8346C3.01322 75.7502 2.98598 75.6459 3.00686 75.5444C3.02774 75.4429 3.09503 75.3527 3.19392 75.2935L128.22 0.490996C128.755 0.172257 129.392 0.000918805 130.045 3.68497e-06C130.698 -0.000911435 131.335 0.168639 131.872 0.485876L257.805 75.2927C257.884 75.34 257.944 75.4077 257.976 75.486C258.007 75.5643 258.008 75.649 257.979 75.7279C257.95 75.8068 257.892 75.8757 257.814 75.9247C257.736 75.9736 257.641 76 257.544 75.9999Z" fill="#272727"/>
<path d="M256.883 76.0029C257.483 76.02 258.03 76.2285 258.417 76.5566C258.766 76.8522 258.95 77.2102 258.991 77.5596L259 77.709V195.292C258.999 195.687 258.815 196.106 258.417 196.443C258.014 196.785 257.436 196.999 256.806 197H3.19434C2.56431 196.999 1.98646 196.785 1.58301 196.443C1.23442 196.148 1.04986 195.79 1.00879 195.44L1 195.291V77.709C1.00052 77.3141 1.18453 76.8945 1.58301 76.5566C1.96959 76.2288 2.51596 76.0204 3.11523 76.0029L56.6855 94.8496L130.604 120.854L130.607 120.855C130.997 120.991 131.411 121.057 131.825 121.056C132.239 121.054 132.652 120.983 133.041 120.845L133.046 120.843L204.691 94.9004L256.883 76.0029Z" fill="#0F0F0F" stroke="#272727" stroke-width="2"/>
<path d="M65 1H197C200.866 1 204 4.13401 204 8V81.3574C204 84.3178 202.137 86.9579 199.349 87.9512L134.312 111.114C132.813 111.648 131.176 111.656 129.672 111.135L62.707 87.9199C59.8896 86.9431 58.0002 84.2886 58 81.3066V8C58 4.13401 61.134 1.00001 65 1Z" fill="#0F0F0F" stroke="#272727" stroke-width="2"/>
<path d="M24.5675 160H54.2315C55.4429 160 56.6047 160.48 57.4612 161.335C58.3178 162.191 58.799 163.35 58.799 164.559C58.799 165.769 58.3178 166.928 57.4612 167.784C56.6047 168.639 55.4429 169.119 54.2315 169.119H24.5675C23.3561 169.119 22.1944 168.639 21.3378 167.784C20.4812 166.928 20 165.769 20 164.559C20 163.35 20.4812 162.191 21.3378 161.335C22.1944 160.48 23.3561 160 24.5675 160Z" fill="#595959"/>
<path d="M23.2625 173.027H88.6837C89.549 173.027 90.3788 173.37 90.9907 173.981C91.6025 174.592 91.9462 175.42 91.9462 176.284C91.9462 177.148 91.6025 177.976 90.9907 178.587C90.3788 179.198 89.549 179.541 88.6837 179.541H23.2625C22.3972 179.541 21.5674 179.198 20.9556 178.587C20.3437 177.976 20 177.148 20 176.284C20 175.42 20.3437 174.592 20.9556 173.981C21.5674 173.37 22.3972 173.027 23.2625 173.027Z" fill="#595959"/>
<path d="M151.609 57.1737L132.731 75.9175C132.031 76.6107 131.083 77 130.095 77C129.107 77 128.159 76.6107 127.46 75.9175L108.097 56.693C106.753 55.3602 105.697 53.7695 104.994 52.018C104.29 50.2665 103.954 48.391 104.005 46.506C104.056 44.6211 104.494 42.7663 105.291 41.0549C106.089 39.3435 107.229 37.8114 108.643 36.5523C114.067 31.6911 122.913 32.1447 128.348 37.5463L130.095 39.2793L132.327 37.0638C133.673 35.7396 135.275 34.6978 137.035 34.0002C138.795 33.3026 140.679 32.9636 142.574 33.0031C144.475 33.0466 146.346 33.4775 148.072 34.269C149.798 35.0605 151.341 36.1957 152.607 37.6041C157.496 42.993 157.048 51.7722 151.609 57.1737Z" fill="#FF2056"/>
</g>
<defs>
<clipPath id="clip0_98_58">
<rect width="260" height="198" fill="white"/>
</clipPath>
</defs>
</svg>
