<svg width="260" height="198" viewBox="0 0 260 198" fill="none" xmlns="http://www.w3.org/2000/svg">
<g clip-path="url(#clip0_72_183)">
<path d="M257.544 75.9999C257.451 76 257.361 75.9757 257.284 75.9303L131.351 1.12328C130.968 0.896691 130.513 0.775596 130.046 0.776274C129.58 0.776953 129.125 0.89937 128.743 1.12708L3.71698 75.9296C3.61809 75.9887 3.4957 76.012 3.37672 75.9942C3.25775 75.9763 3.15194 75.9189 3.08258 75.8346C3.01322 75.7502 2.98598 75.6459 3.00686 75.5444C3.02774 75.4429 3.09503 75.3526 3.19392 75.2935L128.22 0.490996C128.755 0.172257 129.392 0.000918805 130.045 3.68497e-06C130.698 -0.000911435 131.335 0.168639 131.872 0.485876L257.805 75.2927C257.884 75.34 257.944 75.4077 257.976 75.486C258.007 75.5643 258.008 75.649 257.979 75.7279C257.95 75.8068 257.892 75.8757 257.814 75.9247C257.736 75.9736 257.641 76 257.544 75.9999Z" fill="#595959"/>
<path d="M132.124 120C131.674 120 131.229 119.927 130.813 119.783L57 93.8573V12.7066C57.001 11.9891 57.3382 11.3011 57.9376 10.7937C58.5371 10.2863 59.3498 10.0008 60.1975 10H201.802C202.65 10.0008 203.463 10.2863 204.062 10.7937C204.662 11.3011 204.999 11.9891 205 12.7066V93.914L204.861 93.9642L133.474 119.77C133.046 119.922 132.587 120 132.124 120Z" fill="black"/>
<path d="M132.12 120C131.642 120 131.169 119.922 130.727 119.769L57 93.8851V12.8898C57.001 12.1237 57.3612 11.3891 58.0015 10.8474C58.6418 10.3056 59.5099 10.0009 60.4154 10H201.585C202.49 10.0009 203.358 10.3056 203.999 10.8474C204.639 11.3891 204.999 12.1237 205 12.8898V93.94L133.556 119.755C133.101 119.917 132.613 120 132.12 120ZM57.9107 93.3703L131.074 119.057C131.757 119.291 132.521 119.287 133.2 119.046L204.089 93.4313V12.8898C204.088 12.328 203.824 11.7893 203.355 11.3921C202.885 10.9948 202.249 10.7713 201.585 10.7706H60.4154C59.7514 10.7713 59.1148 10.9948 58.6452 11.3921C58.1757 11.7893 57.9116 12.328 57.9108 12.8898L57.9107 93.3703Z" fill="#595959"/>
<path d="M256.807 75H256.716L204.351 93.9606L132.705 119.903C132.425 120.003 132.125 120.055 131.821 120.056C131.517 120.057 131.216 120.008 130.935 119.91L57.0175 93.9064L3.36626 75.031L3.2843 75H3.19298C2.34644 75.0008 1.53483 75.2863 0.936238 75.7939C0.337641 76.3015 0.000939307 76.9897 0 77.7075V195.292C0.000940512 196.01 0.337641 196.698 0.936238 197.206C1.53483 197.714 2.34644 197.999 3.19298 198H256.807C257.654 197.999 258.465 197.714 259.064 197.206C259.662 196.698 259.999 196.01 260 195.292V77.7075C259.999 76.9897 259.662 76.3015 259.064 75.7939C258.465 75.2863 257.654 75.0008 256.807 75ZM259.088 195.292C259.087 195.805 258.847 196.297 258.419 196.66C257.992 197.022 257.412 197.226 256.807 197.226H3.19298C2.58818 197.226 2.00821 197.022 1.58055 196.66C1.15289 196.297 0.912522 195.805 0.912281 195.292V77.7075C0.913108 77.2074 1.14188 76.7269 1.55078 76.3665C1.95967 76.0061 2.51703 75.7936 3.10634 75.7736L57.0175 94.7419L130.584 120.626C131.38 120.901 132.273 120.897 133.065 120.614L204.351 94.7999L256.898 75.7736C257.487 75.7951 258.042 76.0082 258.45 76.3684C258.858 76.7286 259.086 77.2082 259.088 77.7075V195.292Z" fill="#595959"/>
<path d="M125.007 79C123.813 79.0023 122.651 78.61 121.696 77.8825L121.637 77.8373L109.17 68.1375C108.593 67.6879 108.108 67.1272 107.744 66.4873C107.38 65.8475 107.143 65.141 107.048 64.4082C106.952 63.6754 107 62.9308 107.188 62.2166C107.375 61.5025 107.7 60.833 108.142 60.2463C108.585 59.6596 109.136 59.1671 109.766 58.7971C110.396 58.4271 111.091 58.1867 111.812 58.0897C112.533 57.9927 113.266 58.041 113.969 58.2318C114.671 58.4226 115.33 58.7522 115.907 59.2017L123.983 65.494L143.065 40.2037C143.508 39.6171 144.06 39.1249 144.69 38.7551C145.319 38.3853 146.015 38.1451 146.736 38.0484C147.457 37.9517 148.19 38.0002 148.892 38.1913C149.595 38.3824 150.254 38.7122 150.831 39.162L150.712 39.3257L150.834 39.1644C151.998 40.0737 152.76 41.4153 152.952 42.8948C153.144 44.3742 152.751 45.8707 151.859 47.0559L129.413 76.8034C128.894 77.4889 128.226 78.0436 127.462 78.4245C126.698 78.8055 125.858 79.0024 125.007 79Z" fill="#FF2056"/>
<path d="M24.5675 160H54.2315C55.4429 160 56.6047 160.48 57.4612 161.335C58.3178 162.191 58.799 163.35 58.799 164.559C58.799 165.769 58.3178 166.928 57.4612 167.784C56.6047 168.639 55.4429 169.119 54.2315 169.119H24.5675C23.3561 169.119 22.1944 168.639 21.3378 167.784C20.4812 166.928 20 165.769 20 164.559C20 163.35 20.4812 162.191 21.3378 161.335C22.1944 160.48 23.3561 160 24.5675 160Z" fill="#595959"/>
<path d="M23.2625 173.027H88.6837C89.549 173.027 90.3788 173.37 90.9907 173.981C91.6025 174.592 91.9462 175.42 91.9462 176.284C91.9462 177.148 91.6025 177.976 90.9907 178.587C90.3788 179.198 89.549 179.541 88.6837 179.541H23.2625C22.3972 179.541 21.5674 179.198 20.9556 178.587C20.3437 177.976 20 177.148 20 176.284C20 175.42 20.3437 174.592 20.9556 173.981C21.5674 173.37 22.3972 173.027 23.2625 173.027Z" fill="#121212"/>
</g>
<defs>
<clipPath id="clip0_72_183">
<rect width="260" height="198" fill="white"/>
</clipPath>
</defs>
</svg>
