<svg width="260" height="198" viewBox="0 0 260 198" fill="none" xmlns="http://www.w3.org/2000/svg">
<g clip-path="url(#clip0_91_159)">
<path d="M257.544 75.9999C257.451 76 257.361 75.9757 257.284 75.9303L131.351 1.12328C130.968 0.896691 130.513 0.775596 130.046 0.776275C129.58 0.776953 129.125 0.89937 128.743 1.12708L3.71698 75.9296C3.61809 75.9887 3.4957 76.012 3.37672 75.9941C3.25775 75.9763 3.15194 75.9189 3.08258 75.8346C3.01322 75.7502 2.98598 75.6459 3.00686 75.5444C3.02774 75.4429 3.09503 75.3527 3.19392 75.2935L128.22 0.490996C128.755 0.172257 129.392 0.000918805 130.045 3.68497e-06C130.698 -0.000911435 131.335 0.168639 131.872 0.485876L257.805 75.2927C257.884 75.34 257.944 75.4077 257.976 75.486C258.007 75.5643 258.008 75.649 257.979 75.7279C257.95 75.8068 257.892 75.8757 257.814 75.9247C257.736 75.9736 257.641 76 257.544 75.9999Z" fill="#0F0F0F"/>
<path d="M132.124 120C131.674 120 131.229 119.927 130.813 119.783L57 93.8573V12.7066C57.001 11.9891 57.3382 11.3011 57.9376 10.7937C58.5371 10.2863 59.3498 10.0008 60.1975 10H201.802C202.65 10.0008 203.463 10.2863 204.062 10.7937C204.662 11.3011 204.999 11.9891 205 12.7066V93.914L204.861 93.9642L133.474 119.77C133.046 119.922 132.587 120 132.124 120Z" fill="black"/>
<path d="M256.807 75H256.716L204.351 93.9606L132.705 119.903C132.425 120.003 132.125 120.055 131.821 120.056C131.517 120.057 131.216 120.008 130.935 119.91L57.0175 93.9064L3.36626 75.031L3.2843 75H3.19298C2.34644 75.0008 1.53483 75.2863 0.936238 75.7939C0.337641 76.3015 0.000939307 76.9897 0 77.7075V195.292C0.000940512 196.01 0.337641 196.698 0.936238 197.206C1.53483 197.714 2.34644 197.999 3.19298 198H256.807C257.654 197.999 258.465 197.714 259.064 197.206C259.662 196.698 259.999 196.01 260 195.292V77.7075C259.999 76.9897 259.662 76.3015 259.064 75.7939C258.465 75.2863 257.654 75.0008 256.807 75Z" fill="#0F0F0F"/>
<path d="M57 8.00001C57 3.58173 60.5817 0 65 0H197C201.418 0 205 3.58171 205 7.99999L205 81.357C205 84.7405 202.872 87.7581 199.684 88.8933L134.648 112.057C132.934 112.667 131.063 112.675 129.344 112.079L62.3798 88.8649C59.1595 87.7486 57.0001 84.7145 57.0001 81.3063L57 8.00001Z" fill="#0F0F0F"/>
<path d="M24.5675 160H54.2315C55.4429 160 56.6047 160.48 57.4612 161.335C58.3178 162.191 58.799 163.35 58.799 164.559C58.799 165.769 58.3178 166.928 57.4612 167.784C56.6047 168.639 55.4429 169.119 54.2315 169.119H24.5675C23.3561 169.119 22.1944 168.639 21.3378 167.784C20.4812 166.928 20 165.769 20 164.559C20 163.35 20.4812 162.191 21.3378 161.335C22.1944 160.48 23.3561 160 24.5675 160Z" fill="#595959"/>
<path d="M23.2625 173.027H88.6837C89.549 173.027 90.3788 173.37 90.9907 173.981C91.6025 174.592 91.9462 175.42 91.9462 176.284C91.9462 177.147 91.6025 177.976 90.9907 178.587C90.3788 179.197 89.549 179.54 88.6837 179.54H23.2625C22.3972 179.54 21.5674 179.197 20.9556 178.587C20.3437 177.976 20 177.147 20 176.284C20 175.42 20.3437 174.592 20.9556 173.981C21.5674 173.37 22.3972 173.027 23.2625 173.027Z" fill="#595959"/>
<path d="M151.609 57.1737L132.731 75.9175C132.031 76.6107 131.083 77 130.095 77C129.107 77 128.159 76.6107 127.46 75.9175L108.097 56.693C106.753 55.3602 105.697 53.7695 104.994 52.018C104.29 50.2665 103.954 48.391 104.005 46.506C104.056 44.6211 104.494 42.7663 105.291 41.0549C106.089 39.3435 107.229 37.8114 108.643 36.5523C114.067 31.6911 122.913 32.1447 128.348 37.5463L130.095 39.2793L132.327 37.0638C133.673 35.7396 135.275 34.6978 137.035 34.0002C138.795 33.3026 140.679 32.9636 142.574 33.0031C144.475 33.0466 146.346 33.4775 148.072 34.269C149.798 35.0605 151.341 36.1957 152.607 37.6041C157.496 42.993 157.048 51.7722 151.609 57.1737Z" fill="#FF2056"/>
</g>
<defs>
<clipPath id="clip0_91_159">
<rect width="260" height="198" fill="white"/>
</clipPath>
</defs>
</svg>
