<svg width="260" height="198" viewBox="0 0 260 198" fill="none" xmlns="http://www.w3.org/2000/svg">
<g clip-path="url(#clip0_70_93)">
<path d="M257.544 75.9999C257.451 76 257.361 75.9757 257.284 75.9303L131.351 1.12328C130.968 0.896691 130.513 0.775596 130.046 0.776275C129.58 0.776953 129.125 0.89937 128.743 1.12708L3.71698 75.9296C3.61809 75.9887 3.4957 76.012 3.37672 75.9941C3.25775 75.9763 3.15194 75.9189 3.08258 75.8346C3.01322 75.7502 2.98598 75.6459 3.00686 75.5444C3.02774 75.4429 3.09503 75.3527 3.19392 75.2935L128.22 0.490996C128.755 0.172257 129.392 0.000918805 130.045 3.68497e-06C130.698 -0.000911435 131.335 0.168639 131.872 0.485876L257.805 75.2927C257.884 75.34 257.944 75.4077 257.976 75.486C258.007 75.5643 258.008 75.649 257.979 75.7279C257.95 75.8068 257.892 75.8757 257.814 75.9247C257.736 75.9736 257.641 76 257.544 75.9999Z" fill="#090909"/>
<path d="M132.124 120C131.674 120 131.229 119.927 130.813 119.783L57 93.8573V12.7066C57.001 11.9891 57.3382 11.3011 57.9376 10.7937C58.5371 10.2863 59.3498 10.0008 60.1975 10H201.802C202.65 10.0008 203.463 10.2863 204.062 10.7937C204.662 11.3011 204.999 11.9891 205 12.7066V93.914L204.861 93.9642L133.474 119.77C133.046 119.922 132.587 120 132.124 120Z" fill="black"/>
<path d="M256.807 75H256.716L204.351 93.9606L132.705 119.903C132.425 120.003 132.125 120.055 131.821 120.056C131.517 120.057 131.216 120.008 130.935 119.91L57.0175 93.9064L3.36626 75.031L3.2843 75H3.19298C2.34644 75.0008 1.53483 75.2863 0.936238 75.7939C0.337641 76.3015 0.000939307 76.9897 0 77.7075V195.292C0.000940512 196.01 0.337641 196.698 0.936238 197.206C1.53483 197.714 2.34644 197.999 3.19298 198H256.807C257.654 197.999 258.465 197.714 259.064 197.206C259.662 196.698 259.999 196.01 260 195.292V77.7075C259.999 76.9897 259.662 76.3015 259.064 75.7939C258.465 75.2863 257.654 75.0008 256.807 75Z" fill="#090909"/>
<path d="M57 8.00001C57 3.58173 60.5817 0 65 0H197C201.418 0 205 3.58171 205 7.99999L205 81.357C205 84.7405 202.872 87.7581 199.684 88.8933L134.648 112.057C132.934 112.667 131.063 112.675 129.344 112.079L62.3798 88.8649C59.1595 87.7486 57.0001 84.7145 57.0001 81.3063L57 8.00001Z" fill="#090909"/>
<path d="M125.007 75C123.813 75.0023 122.651 74.61 121.696 73.8825L121.637 73.8373L109.17 64.1375C108.593 63.6879 108.108 63.1272 107.744 62.4873C107.38 61.8475 107.143 61.141 107.048 60.4082C106.952 59.6754 107 58.9308 107.188 58.2167C107.375 57.5025 107.7 56.833 108.142 56.2463C108.585 55.6596 109.136 55.1671 109.766 54.7971C110.396 54.4271 111.091 54.1867 111.812 54.0897C112.533 53.9927 113.266 54.041 113.969 54.2318C114.671 54.4226 115.33 54.7522 115.907 55.2017L123.983 61.494L143.065 36.2037C143.508 35.6171 144.06 35.1249 144.69 34.7551C145.319 34.3853 146.015 34.1451 146.736 34.0484C147.457 33.9517 148.19 34.0002 148.892 34.1913C149.595 34.3824 150.254 34.7122 150.831 35.162L150.712 35.3257L150.834 35.1644C151.998 36.0737 152.76 37.4153 152.952 38.8948C153.144 40.3742 152.751 41.8707 151.859 43.0559L129.413 72.8034C128.894 73.4889 128.226 74.0436 127.462 74.4245C126.698 74.8055 125.858 75.0024 125.007 75Z" fill="#595959"/>
<path d="M24.5675 160H54.2315C55.4429 160 56.6047 160.48 57.4612 161.335C58.3178 162.191 58.799 163.35 58.799 164.559C58.799 165.769 58.3178 166.928 57.4612 167.784C56.6047 168.639 55.4429 169.119 54.2315 169.119H24.5675C23.3561 169.119 22.1944 168.639 21.3378 167.784C20.4812 166.928 20 165.769 20 164.559C20 163.35 20.4812 162.191 21.3378 161.335C22.1944 160.48 23.3561 160 24.5675 160Z" fill="black"/>
<path d="M23.2625 173.027H88.6837C89.549 173.027 90.3788 173.37 90.9907 173.981C91.6025 174.592 91.9462 175.42 91.9462 176.284C91.9462 177.147 91.6025 177.976 90.9907 178.587C90.3788 179.197 89.549 179.54 88.6837 179.54H23.2625C22.3972 179.54 21.5674 179.197 20.9556 178.587C20.3437 177.976 20 177.147 20 176.284C20 175.42 20.3437 174.592 20.9556 173.981C21.5674 173.37 22.3972 173.027 23.2625 173.027Z" fill="black"/>
</g>
<defs>
<clipPath id="clip0_70_93">
<rect width="260" height="198" fill="white"/>
</clipPath>
</defs>
</svg>
