<svg width="259" height="190" viewBox="0 0 259 190" fill="none" xmlns="http://www.w3.org/2000/svg">
<g clip-path="url(#clip0_72_107)">
<path d="M254 190H6V114H254V190Z" fill="#090909"/>
<path d="M141 114H117V190H141V114Z" fill="#595959"/>
<path d="M259 109H-1V88H259V109Z" fill="#090909"/>
<path d="M141 86H117V109H141V86Z" fill="#595959"/>
<path d="M127.514 95.9723C128.899 95.9723 130.021 94.8557 130.021 93.4783C130.021 92.101 128.899 90.9844 127.514 90.9844C126.13 90.9844 125.008 92.101 125.008 93.4783C125.008 94.8557 126.13 95.9723 127.514 95.9723Z" fill="#121212"/>
<path d="M127.514 163.563C128.899 163.563 130.021 162.446 130.021 161.069C130.021 159.691 128.899 158.575 127.514 158.575C126.13 158.575 125.008 159.691 125.008 161.069C125.008 162.446 126.13 163.563 127.514 163.563Z" fill="#121212"/>
<path d="M133.364 104.008C134.287 104.008 135.035 103.264 135.035 102.346C135.035 101.427 134.287 100.683 133.364 100.683C132.441 100.683 131.693 101.427 131.693 102.346C131.693 103.264 132.441 104.008 133.364 104.008Z" fill="#121212"/>
<path d="M123.337 138.623C124.26 138.623 125.008 137.879 125.008 136.96C125.008 136.042 124.26 135.298 123.337 135.298C122.414 135.298 121.666 136.042 121.666 136.96C121.666 137.879 122.414 138.623 123.337 138.623Z" fill="#121212"/>
<path d="M131.972 146.105C132.895 146.105 133.643 145.36 133.643 144.442C133.643 143.524 132.895 142.779 131.972 142.779C131.049 142.779 130.301 143.524 130.301 144.442C130.301 145.36 131.049 146.105 131.972 146.105Z" fill="#121212"/>
<path d="M130.021 177.418C130.943 177.418 131.692 176.674 131.692 175.755C131.692 174.837 130.943 174.093 130.021 174.093C129.098 174.093 128.35 174.837 128.35 175.755C128.35 176.674 129.098 177.418 130.021 177.418Z" fill="#121212"/>
<path d="M228.119 46.8887C222.12 38.9309 211.139 37.0103 205.683 41.0517C200.226 45.093 198.973 56.0745 204.972 64.0323C210.526 71.3983 220.587 73.4071 226.129 70.6475C226.111 70.7337 226.11 70.8224 226.125 70.909L226.438 72.4399C226.462 72.5567 226.515 72.6654 226.593 72.7558C226.671 72.8463 226.772 72.9154 226.884 72.9567C226.997 72.998 227.118 73.01 227.237 72.9917C227.356 72.9733 227.468 72.9252 227.562 72.8519L230.208 70.8033C230.303 70.73 230.377 70.6339 230.424 70.5242C230.47 70.4145 230.488 70.2947 230.475 70.1764C230.462 70.058 230.418 69.945 230.349 69.8479C230.279 69.7509 230.186 69.6731 230.077 69.6219L228.654 68.9511C228.604 68.9288 228.551 68.9124 228.497 68.9023C232.769 64.4264 233.685 54.2706 228.119 46.8887Z" fill="#090909"/>
<path d="M215.375 44.0129C218.256 44.4721 220.851 46.0239 222.624 48.3478C224.398 50.6717 225.215 53.5905 224.907 56.5015C224.843 57.1683 225.881 57.164 225.944 56.5015C226.241 53.3639 225.345 50.2296 223.436 47.7271C221.527 45.2247 218.746 43.5392 215.651 43.0086C214.998 42.8972 214.717 43.9006 215.375 44.0129Z" fill="black"/>
<path d="M67.0936 72.5021C72.2632 64.3133 70.0408 53.8433 64.3201 50.4255C58.5994 47.0076 47.9954 49.8144 42.8258 58.0032C38.0407 65.5829 39.8468 75.2653 44.4142 79.2169C44.328 79.2318 44.2456 79.2625 44.1713 79.3075L42.8704 80.1329C42.7712 80.1958 42.6902 80.2823 42.6351 80.3842C42.5799 80.4862 42.5525 80.6001 42.5554 80.7153C42.5583 80.8304 42.5914 80.9429 42.6515 81.0422C42.7117 81.1414 42.7969 81.224 42.8991 81.2821L45.7553 82.9075C45.8575 82.9657 45.9732 82.9975 46.0916 82.9999C46.21 83.0022 46.327 82.9752 46.4316 82.9212C46.5362 82.8672 46.6249 82.7881 46.6892 82.6914C46.7535 82.5947 46.7914 82.4836 46.7992 82.3686L46.901 80.8609C46.9034 80.8083 46.8994 80.7556 46.8891 80.7039C52.5801 82.9107 62.298 80.0983 67.0936 72.5021Z" fill="#090909"/>
<path d="M64.6532 59.5483C65.3134 62.3963 64.819 65.3809 63.272 67.8862C61.725 70.3915 59.2435 72.2261 56.3397 73.0114C55.6773 73.1981 56.0778 74.1619 56.7358 73.9764C59.8522 73.0971 62.5099 71.1098 64.1761 68.4129C65.8422 65.716 66.3936 62.509 65.7196 59.435C65.5769 58.7866 64.5094 58.8951 64.6532 59.5483Z" fill="black"/>
<path d="M116.035 8.17206C109.16 2.07908 98.9198 2.40148 94.7563 7.09503C90.5927 11.7886 91.498 21.9896 98.3726 28.0826C104.736 33.7224 114.165 33.653 118.643 30.1065C118.643 30.1881 118.658 30.2688 118.688 30.3444L119.253 31.6749C119.296 31.7763 119.364 31.8649 119.452 31.9323C119.539 31.9997 119.642 32.0436 119.751 32.0599C119.86 32.0761 119.971 32.0642 120.075 32.0252C120.178 31.9863 120.27 31.9216 120.342 31.8372L122.344 29.4806C122.416 29.3963 122.465 29.2951 122.486 29.1868C122.508 29.0784 122.502 28.9665 122.468 28.8615C122.434 28.7566 122.374 28.6622 122.294 28.5872C122.213 28.5123 122.114 28.4592 122.007 28.4332L120.602 28.0921C120.553 28.0813 120.502 28.0763 120.452 28.0773C123.468 23.2122 122.412 13.8241 116.035 8.17206Z" fill="#595959"/>
<path d="M103.665 7.914C106.393 7.78132 109.062 8.70081 111.122 10.4827C113.181 12.2645 114.474 14.7727 114.734 17.4895C114.8 18.1105 115.752 17.9076 115.686 17.2907C115.374 14.3692 113.968 11.6793 111.751 9.76038C109.534 7.8415 106.669 6.83555 103.731 6.94426C103.111 6.96769 103.041 7.93758 103.665 7.914Z" fill="black"/>
<path d="M218.437 22.8776C215.537 22.7023 212.722 21.87 210.222 20.4489C207.722 19.0278 205.608 17.0584 204.054 14.7021C203.619 14.0341 203.051 13.3001 203.352 12.4779C203.457 12.1626 203.67 11.8909 203.957 11.707C204.244 11.5232 204.587 11.4382 204.931 11.4659C205.82 11.5697 206.393 12.404 206.503 13.2034C206.627 14.1102 205.96 14.8221 205.137 15.159C203.126 15.9823 201.097 14.71 199.458 13.6945C195.725 11.3807 191.619 9.2882 187.096 9.02451C182.911 8.78057 178.423 10.3553 176.095 13.8382C175.688 14.4475 176.699 15.0106 177.104 14.4042C179.413 10.9501 184.08 9.70954 188.138 10.2434C190.556 10.6096 192.891 11.3704 195.042 12.4928C196.157 13.0483 197.239 13.6641 198.299 14.3114C199.308 14.9867 200.377 15.5748 201.494 16.0688C203.356 16.8031 205.822 16.7457 207.124 15.0551C208.337 13.4778 207.399 10.852 205.369 10.4086C204.924 10.3243 204.463 10.3474 204.03 10.4758C203.596 10.6043 203.202 10.834 202.884 11.1444C202.565 11.4548 202.332 11.8362 202.205 12.2544C202.078 12.6726 202.061 13.1145 202.155 13.5406C202.358 14.4694 203.087 15.3784 203.651 16.1375C205.346 18.4257 207.554 20.3199 210.113 21.6805C212.672 23.0411 215.516 23.8334 218.437 23.9992C219.189 24.0349 219.187 22.9132 218.437 22.8776Z" fill="#121212"/>
<path d="M44.3882 22.1356C43.4683 24.8914 41.9357 27.3954 39.916 29.4424C37.8963 31.4894 35.4469 33.0211 32.7688 33.9121C32.0109 34.1597 31.1547 34.5188 30.4386 34.0148C30.1612 33.8318 29.954 33.5554 29.8506 33.2308C29.7473 32.9062 29.754 32.5526 29.8697 32.2278C30.2 31.3962 31.1543 31.0582 31.9548 31.1593C32.8629 31.2741 33.378 32.1023 33.4904 32.9845C33.7651 35.1403 32.0109 36.7711 30.606 38.0907C27.4049 41.0977 24.321 44.5222 22.8955 48.8232C21.5767 52.8026 21.9362 57.5453 24.6979 60.6953C25.181 61.2463 25.9866 60.4153 25.5058 59.867C22.7669 56.743 22.7766 51.9138 24.3426 48.1322C25.3222 45.8911 26.6614 43.8325 28.3022 42.0455C29.1275 41.1119 30.0023 40.2264 30.9018 39.3701C31.8152 38.5707 32.66 37.6903 33.4262 36.7392C34.6176 35.13 35.2004 32.7332 33.9041 31.0388C32.6948 29.4581 29.9156 29.6846 28.9618 31.531C28.7652 31.9394 28.6684 32.3899 28.6802 32.8421C28.6919 33.2943 28.8119 33.7342 29.0293 34.1221C29.2467 34.5101 29.5547 34.8342 29.9258 35.0652C30.2968 35.2962 30.7193 35.427 31.1554 35.4458C32.105 35.4905 33.1716 35.0218 34.0509 34.6734C36.6998 33.6284 39.101 31.9855 41.0775 29.8659C43.054 27.7463 44.5556 25.2038 45.4716 22.4258C45.7006 21.7089 44.6166 21.4206 44.3882 22.1356Z" fill="#121212"/>
</g>
<defs>
<clipPath id="clip0_72_107">
<rect width="259" height="190" fill="white"/>
</clipPath>
</defs>
</svg>
