<svg width="259" height="190" viewBox="0 0 259 190" fill="none" xmlns="http://www.w3.org/2000/svg">
<g clip-path="url(#clip0_91_186)">
<path d="M254 190H6V114H254V190Z" fill="#0F0F0F"/>
<path d="M141 114H117V190H141V114Z" fill="#595959"/>
<path d="M259 109H-1V88H259V109Z" fill="#0F0F0F"/>
<path d="M141 86H117V109H141V86Z" fill="#595959"/>
<path d="M127.514 95.9723C128.899 95.9723 130.021 94.8557 130.021 93.4783C130.021 92.101 128.899 90.9844 127.514 90.9844C126.13 90.9844 125.008 92.101 125.008 93.4783C125.008 94.8557 126.13 95.9723 127.514 95.9723Z" fill="#0F0F0F"/>
<path d="M127.514 163.563C128.899 163.563 130.021 162.446 130.021 161.069C130.021 159.691 128.899 158.575 127.514 158.575C126.13 158.575 125.008 159.691 125.008 161.069C125.008 162.446 126.13 163.563 127.514 163.563Z" fill="#0F0F0F"/>
<path d="M133.364 104.008C134.287 104.008 135.035 103.264 135.035 102.346C135.035 101.427 134.287 100.683 133.364 100.683C132.441 100.683 131.693 101.427 131.693 102.346C131.693 103.264 132.441 104.008 133.364 104.008Z" fill="#0F0F0F"/>
<path d="M123.337 138.623C124.26 138.623 125.008 137.879 125.008 136.96C125.008 136.042 124.26 135.298 123.337 135.298C122.414 135.298 121.666 136.042 121.666 136.96C121.666 137.879 122.414 138.623 123.337 138.623Z" fill="#0F0F0F"/>
<path d="M131.972 146.105C132.895 146.105 133.643 145.36 133.643 144.442C133.643 143.524 132.895 142.779 131.972 142.779C131.049 142.779 130.301 143.524 130.301 144.442C130.301 145.36 131.049 146.105 131.972 146.105Z" fill="#0F0F0F"/>
<path d="M130.021 177.418C130.943 177.418 131.692 176.674 131.692 175.755C131.692 174.837 130.943 174.093 130.021 174.093C129.098 174.093 128.35 174.837 128.35 175.755C128.35 176.674 129.098 177.418 130.021 177.418Z" fill="#0F0F0F"/>
<path d="M199.791 62.9928C210.089 55.2513 212.575 41.0827 207.345 34.042C202.115 27.0013 187.904 25.384 177.605 33.1254C168.073 40.291 165.473 53.2734 169.044 60.424C168.933 60.4009 168.818 60.3995 168.706 60.4198L166.725 60.823C166.574 60.8537 166.433 60.9228 166.316 61.0236C166.199 61.1244 166.109 61.2536 166.056 61.399C166.003 61.5444 165.987 61.7012 166.011 61.8543C166.035 62.0075 166.097 62.152 166.192 62.2742L168.843 65.688C168.938 65.8102 169.062 65.9059 169.204 65.9662C169.346 66.0264 169.501 66.0491 169.654 66.0322C169.807 66.0152 169.954 65.9591 170.079 65.8693C170.205 65.7794 170.305 65.6588 170.372 65.5188L171.24 63.6825C171.269 63.6178 171.29 63.55 171.303 63.4804C177.095 68.9922 190.238 70.174 199.791 62.9928Z" fill="#595959"/>
<path d="M203.698 46.4776C203.107 50.1436 201.112 53.4462 198.124 55.7035C195.136 57.9609 191.384 59.0007 187.641 58.6084C186.784 58.5279 186.789 59.849 187.641 59.929C191.675 60.3069 195.705 59.1667 198.922 56.7371C202.14 54.3075 204.307 50.7681 204.989 46.8287C205.132 45.9974 203.842 45.6402 203.698 46.4776Z" fill="black"/>
<path d="M97.7442 21.3634C85.214 10.2578 66.5488 10.8454 58.9599 19.4003C51.371 27.9552 53.0212 46.5484 65.5514 57.654C77.1496 67.9336 94.3362 67.8072 102.498 61.343C102.497 61.4916 102.525 61.6388 102.58 61.7766L103.61 64.2017C103.688 64.3866 103.813 64.5481 103.972 64.6709C104.13 64.7937 104.318 64.8737 104.517 64.9034C104.716 64.933 104.919 64.9113 105.108 64.8403C105.296 64.7693 105.464 64.6513 105.594 64.4976L109.244 60.2021C109.374 60.0484 109.464 59.8641 109.503 59.6666C109.543 59.4692 109.531 59.2651 109.47 59.0738C109.408 58.8826 109.299 58.7104 109.152 58.5738C109.005 58.4372 108.825 58.3406 108.63 58.2932L106.068 57.6714C105.979 57.6517 105.887 57.6427 105.795 57.6445C111.293 48.7769 109.368 31.6653 97.7442 21.3634Z" fill="#FF2056"/>
<path d="M75.1973 20.8938C80.1686 20.6519 85.0335 22.3279 88.7878 25.5756C92.5421 28.8234 94.8992 33.3951 95.3725 38.347C95.4931 39.4787 97.2269 39.1089 97.107 37.9846C96.5379 32.6596 93.9758 27.7567 89.9346 24.2591C85.8935 20.7616 80.672 18.9281 75.3173 19.1262C74.1876 19.1689 74.0592 20.9367 75.1973 20.8938Z" fill="black"/>
<path d="M226.437 23.8776C223.537 23.7023 220.722 22.87 218.222 21.4489C215.722 20.0278 213.608 18.0584 212.054 15.7021C211.619 15.0341 211.051 14.3001 211.352 13.4779C211.457 13.1626 211.67 12.8909 211.957 12.707C212.244 12.5232 212.587 12.4382 212.931 12.4659C213.82 12.5697 214.393 13.404 214.503 14.2034C214.627 15.1102 213.96 15.8221 213.137 16.159C211.126 16.9823 209.097 15.71 207.458 14.6945C203.725 12.3807 199.619 10.2882 195.096 10.0245C190.911 9.78057 186.423 11.3553 184.095 14.8382C183.688 15.4475 184.699 16.0106 185.104 15.4042C187.413 11.9501 192.08 10.7095 196.138 11.2434C198.556 11.6096 200.891 12.3704 203.042 13.4928C204.157 14.0483 205.239 14.6641 206.299 15.3114C207.308 15.9867 208.377 16.5748 209.494 17.0688C211.356 17.8031 213.822 17.7457 215.124 16.0551C216.337 14.4778 215.399 11.852 213.369 11.4086C212.924 11.3243 212.463 11.3474 212.03 11.4758C211.596 11.6043 211.202 11.834 210.884 12.1444C210.565 12.4548 210.332 12.8362 210.205 13.2544C210.078 13.6726 210.061 14.1145 210.155 14.5406C210.358 15.4694 211.087 16.3784 211.651 17.1375C213.346 19.4257 215.554 21.3199 218.113 22.6805C220.672 24.0411 223.516 24.8334 226.437 24.9992C227.189 25.0349 227.187 23.9132 226.437 23.8776Z" fill="#0F0F0F"/>
<path d="M41.3882 22.1356C40.4683 24.8914 38.9357 27.3954 36.916 29.4424C34.8963 31.4894 32.4469 33.0211 29.7688 33.9121C29.0109 34.1597 28.1547 34.5188 27.4386 34.0148C27.1612 33.8318 26.954 33.5554 26.8506 33.2308C26.7473 32.9062 26.754 32.5526 26.8697 32.2278C27.2 31.3962 28.1543 31.0582 28.9548 31.1593C29.8629 31.2741 30.378 32.1023 30.4904 32.9845C30.7651 35.1403 29.0109 36.7711 27.606 38.0907C24.4049 41.0977 21.321 44.5222 19.8955 48.8232C18.5767 52.8026 18.9362 57.5453 21.6979 60.6953C22.181 61.2463 22.9866 60.4153 22.5058 59.867C19.7669 56.743 19.7766 51.9138 21.3426 48.1322C22.3222 45.8911 23.6614 43.8325 25.3022 42.0455C26.1275 41.1119 27.0023 40.2264 27.9018 39.3701C28.8152 38.5707 29.66 37.6903 30.4262 36.7392C31.6176 35.13 32.2004 32.7332 30.9041 31.0388C29.6948 29.4581 26.9156 29.6846 25.9618 31.531C25.7652 31.9394 25.6684 32.3899 25.6802 32.8421C25.6919 33.2943 25.8119 33.7342 26.0293 34.1221C26.2467 34.5101 26.5547 34.8342 26.9258 35.0652C27.2968 35.2962 27.7193 35.427 28.1554 35.4458C29.105 35.4905 30.1716 35.0218 31.0509 34.6734C33.6998 33.6284 36.101 31.9855 38.0775 29.8659C40.054 27.7463 41.5556 25.2038 42.4716 22.4258C42.7006 21.7089 41.6166 21.4206 41.3882 22.1356Z" fill="#0F0F0F"/>
</g>
<defs>
<clipPath id="clip0_91_186">
<rect width="259" height="190" fill="white"/>
</clipPath>
</defs>
</svg>
