<svg width="259" height="190" viewBox="0 0 259 190" fill="none" xmlns="http://www.w3.org/2000/svg">
<path d="M253 115V189H7V115H253Z" fill="#0F0F0F" stroke="#272727" stroke-width="2"/>
<path d="M141 114H117V190H141V114Z" fill="#595959"/>
<path d="M258 89V108H1V89H258Z" fill="#0F0F0F" stroke="#272727" stroke-width="2"/>
<path d="M141 86H117V109H141V86Z" fill="#595959"/>
<path d="M127.514 95.9723C128.899 95.9723 130.021 94.8557 130.021 93.4783C130.021 92.101 128.899 90.9844 127.514 90.9844C126.13 90.9844 125.008 92.101 125.008 93.4783C125.008 94.8557 126.13 95.9723 127.514 95.9723Z" fill="#0F0F0F"/>
<path d="M127.514 163.563C128.899 163.563 130.021 162.446 130.021 161.069C130.021 159.691 128.899 158.575 127.514 158.575C126.13 158.575 125.008 159.691 125.008 161.069C125.008 162.446 126.13 163.563 127.514 163.563Z" fill="#0F0F0F"/>
<path d="M133.364 104.008C134.287 104.008 135.035 103.264 135.035 102.346C135.035 101.427 134.287 100.683 133.364 100.683C132.441 100.683 131.693 101.427 131.693 102.346C131.693 103.264 132.441 104.008 133.364 104.008Z" fill="#0F0F0F"/>
<path d="M123.337 138.623C124.26 138.623 125.008 137.879 125.008 136.96C125.008 136.042 124.26 135.298 123.337 135.298C122.414 135.298 121.666 136.042 121.666 136.96C121.666 137.879 122.414 138.623 123.337 138.623Z" fill="#0F0F0F"/>
<path d="M131.972 146.105C132.895 146.105 133.643 145.36 133.643 144.442C133.643 143.524 132.895 142.779 131.972 142.779C131.049 142.779 130.301 143.524 130.301 144.442C130.301 145.36 131.049 146.105 131.972 146.105Z" fill="#0F0F0F"/>
<path d="M130.021 177.418C130.943 177.418 131.692 176.674 131.692 175.755C131.692 174.837 130.943 174.093 130.021 174.093C129.098 174.093 128.35 174.837 128.35 175.755C128.35 176.674 129.098 177.418 130.021 177.418Z" fill="#0F0F0F"/>
<path d="M199.791 62.9928C210.089 55.2513 212.575 41.0827 207.345 34.042C202.115 27.0013 187.904 25.384 177.605 33.1254C168.073 40.291 165.473 53.2734 169.044 60.424C168.933 60.4009 168.818 60.3995 168.706 60.4198L166.725 60.823C166.574 60.8537 166.433 60.9228 166.316 61.0236C166.199 61.1244 166.109 61.2536 166.056 61.399C166.003 61.5444 165.987 61.7012 166.011 61.8543C166.035 62.0075 166.097 62.152 166.192 62.2742L168.843 65.688C168.938 65.8102 169.062 65.9059 169.204 65.9662C169.346 66.0264 169.501 66.0491 169.654 66.0322C169.807 66.0152 169.954 65.9591 170.079 65.8693C170.205 65.7794 170.305 65.6588 170.372 65.5188L171.24 63.6825C171.269 63.6178 171.29 63.55 171.303 63.4804C177.095 68.9922 190.238 70.174 199.791 62.9928Z" fill="#595959"/>
<path d="M203.698 46.4776C203.107 50.1436 201.112 53.4462 198.124 55.7035C195.136 57.9609 191.384 59.0007 187.641 58.6084C186.784 58.5279 186.789 59.849 187.641 59.929C191.675 60.3069 195.705 59.1667 198.922 56.7371C202.14 54.3075 204.307 50.7681 204.989 46.8287C205.132 45.9974 203.842 45.6402 203.698 46.4776Z" fill="black"/>
<path d="M97.7442 21.3631C85.214 10.2575 66.5488 10.8452 58.9599 19.4C51.371 27.9549 53.0212 46.5482 65.5514 57.6537C77.1496 67.9333 94.3362 67.8069 102.498 61.3427C102.497 61.4914 102.525 61.6386 102.58 61.7764L103.61 64.2015C103.688 64.3864 103.813 64.5478 103.972 64.6706C104.13 64.7934 104.318 64.8735 104.517 64.9031C104.716 64.9328 104.919 64.911 105.108 64.84C105.296 64.769 105.464 64.6511 105.594 64.4974L109.244 60.2019C109.374 60.0482 109.464 59.8639 109.503 59.6664C109.543 59.4689 109.531 59.2649 109.47 59.0736C109.408 58.8823 109.299 58.7102 109.152 58.5736C109.005 58.4369 108.825 58.3403 108.63 58.2929L106.068 57.6712C105.979 57.6515 105.887 57.6424 105.795 57.6442C111.293 48.7767 109.368 31.665 97.7442 21.3631Z" fill="#FF2056"/>
<path d="M75.1973 20.8935C80.1686 20.6517 85.0335 22.3276 88.7878 25.5754C92.5421 28.8231 94.8992 33.3948 95.3725 38.3467C95.4931 39.4785 97.2269 39.1087 97.107 37.9843C96.5379 32.6593 93.9758 27.7564 89.9346 24.2589C85.8935 20.7614 80.672 18.9278 75.3173 19.126C74.1876 19.1687 74.0592 20.9365 75.1973 20.8935Z" fill="black"/>
<path d="M226.437 23.8776C223.537 23.7023 220.722 22.87 218.222 21.4489C215.722 20.0278 213.608 18.0584 212.054 15.7021C211.619 15.0341 211.051 14.3001 211.352 13.4779C211.457 13.1626 211.67 12.8909 211.957 12.707C212.244 12.5232 212.587 12.4382 212.931 12.4659C213.82 12.5697 214.393 13.404 214.503 14.2034C214.627 15.1102 213.96 15.8221 213.137 16.159C211.126 16.9823 209.097 15.71 207.458 14.6945C203.725 12.3807 199.619 10.2882 195.096 10.0245C190.911 9.78057 186.423 11.3553 184.095 14.8382C183.688 15.4475 184.699 16.0106 185.104 15.4042C187.413 11.9501 192.08 10.7095 196.138 11.2434C198.556 11.6096 200.891 12.3704 203.042 13.4928C204.157 14.0483 205.239 14.6641 206.299 15.3114C207.308 15.9867 208.377 16.5748 209.494 17.0688C211.356 17.8031 213.822 17.7457 215.124 16.0551C216.337 14.4778 215.399 11.852 213.369 11.4086C212.924 11.3243 212.463 11.3474 212.03 11.4758C211.596 11.6043 211.202 11.834 210.884 12.1444C210.565 12.4548 210.332 12.8362 210.205 13.2544C210.078 13.6726 210.061 14.1145 210.155 14.5406C210.358 15.4694 211.087 16.3784 211.651 17.1375C213.346 19.4257 215.554 21.3199 218.113 22.6805C220.672 24.0411 223.516 24.8334 226.437 24.9992C227.189 25.0349 227.187 23.9132 226.437 23.8776Z" fill="#0F0F0F"/>
<path d="M41.3882 22.1359C40.4683 24.8916 38.9357 27.3956 36.916 29.4426C34.8963 31.4897 32.4469 33.0214 29.7688 33.9123C29.0109 34.16 28.1547 34.519 27.4386 34.0151C27.1612 33.8321 26.954 33.5557 26.8506 33.2311C26.7473 32.9064 26.754 32.5528 26.8697 32.228C27.2 31.3965 28.1543 31.0584 28.9548 31.1596C29.8629 31.2743 30.378 32.1025 30.4904 32.9847C30.7651 35.1406 29.0109 36.7713 27.606 38.091C24.4049 41.0979 21.321 44.5224 19.8955 48.8235C18.5767 52.8029 18.9362 57.5455 21.6979 60.6955C22.181 61.2466 22.9866 60.4156 22.5058 59.8672C19.7669 56.7432 19.7766 51.914 21.3426 48.1325C22.3222 45.8914 23.6614 43.8327 25.3022 42.0458C26.1275 41.1121 27.0023 40.2266 27.9018 39.3703C28.8152 38.5709 29.66 37.6905 30.4262 36.7395C31.6176 35.1302 32.2004 32.7335 30.9041 31.0391C29.6948 29.4583 26.9156 29.6848 25.9618 31.5312C25.7652 31.9396 25.6684 32.3901 25.6802 32.8424C25.6919 33.2946 25.8119 33.7344 26.0293 34.1224C26.2467 34.5104 26.5547 34.8344 26.9258 35.0654C27.2968 35.2964 27.7193 35.4272 28.1554 35.4461C29.105 35.4908 30.1716 35.022 31.0509 34.6736C33.6998 33.6286 36.101 31.9858 38.0775 29.8662C40.054 27.7465 41.5556 25.2041 42.4716 22.4261C42.7006 21.7092 41.6166 21.4208 41.3882 22.1359Z" fill="#0F0F0F"/>
</svg>
