<svg width="259" height="169" viewBox="0 0 259 169" fill="none" xmlns="http://www.w3.org/2000/svg">
<g clip-path="url(#clip0_72_107)">
<path d="M177.087 87.4185H81.2852V168.611H177.087V87.4185Z" fill="black"/>
<path d="M177 169H81.0059V87H177V169ZM82 168H176V88H82V168Z" fill="#595959"/>
<path d="M141.161 103.213H117.211V168.611H141.161V103.213Z" fill="#FF2056"/>
<path d="M141.161 103.213H117.211V168.611H141.161V103.213Z" fill="#FF2056"/>
<path d="M182.657 79.9365H75.7148V103.213H182.657V79.9365Z" fill="black"/>
<path d="M183 103H75V80H183V103ZM76 102H182V81H76V102Z" fill="#595959"/>
<path d="M141.161 77.7197H117.211V102.936H141.161V77.7197Z" fill="#FF2056"/>
<path d="M126.622 55.7331C132.945 65.0582 126.988 80.0562 126.988 80.0562C126.988 80.0562 110.781 79.9354 104.459 70.6103C98.1364 61.2852 104.093 46.2871 104.093 46.2871C104.093 46.2871 120.3 46.408 126.622 55.7331Z" fill="#FF2056"/>
<path d="M129.523 55.7331C123.201 65.0582 129.158 80.0562 129.158 80.0562C129.158 80.0562 145.365 79.9354 151.687 70.6103C158.009 61.2852 152.052 46.2871 152.052 46.2871C152.052 46.2871 135.845 46.408 129.523 55.7331Z" fill="#FF2056"/>
<path d="M112.477 62.756C113.861 62.756 114.984 61.6394 114.984 60.262C114.984 58.8847 113.861 57.7681 112.477 57.7681C111.093 57.7681 109.971 58.8847 109.971 60.262C109.971 61.6394 111.093 62.756 112.477 62.756Z" fill="#121212"/>
<path d="M127.514 87.9723C128.899 87.9723 130.021 86.8557 130.021 85.4783C130.021 84.101 128.899 82.9844 127.514 82.9844C126.13 82.9844 125.008 84.101 125.008 85.4783C125.008 86.8557 126.13 87.9723 127.514 87.9723Z" fill="#121212"/>
<path d="M127.514 142.563C128.899 142.563 130.021 141.446 130.021 140.069C130.021 138.691 128.899 137.575 127.514 137.575C126.13 137.575 125.008 138.691 125.008 140.069C125.008 141.446 126.13 142.563 127.514 142.563Z" fill="#121212"/>
<path d="M119.159 71.0689C120.082 71.0689 120.83 70.3245 120.83 69.4063C120.83 68.488 120.082 67.7437 119.159 67.7437C118.236 67.7437 117.488 68.488 117.488 69.4063C117.488 70.3245 118.236 71.0689 119.159 71.0689Z" fill="#121212"/>
<path d="M144.226 56.9366C145.149 56.9366 145.897 56.1922 145.897 55.274C145.897 54.3557 145.149 53.6113 144.226 53.6113C143.303 53.6113 142.555 54.3557 142.555 55.274C142.555 56.1922 143.303 56.9366 144.226 56.9366Z" fill="#121212"/>
<path d="M133.364 96.0084C134.287 96.0084 135.035 95.264 135.035 94.3457C135.035 93.4275 134.287 92.6831 133.364 92.6831C132.441 92.6831 131.693 93.4275 131.693 94.3457C131.693 95.264 132.441 96.0084 133.364 96.0084Z" fill="#121212"/>
<path d="M123.337 117.623C124.26 117.623 125.008 116.879 125.008 115.96C125.008 115.042 124.26 114.298 123.337 114.298C122.414 114.298 121.666 115.042 121.666 115.96C121.666 116.879 122.414 117.623 123.337 117.623Z" fill="#121212"/>
<path d="M131.972 125.105C132.895 125.105 133.643 124.36 133.643 123.442C133.643 122.524 132.895 121.779 131.972 121.779C131.049 121.779 130.301 122.524 130.301 123.442C130.301 124.36 131.049 125.105 131.972 125.105Z" fill="#121212"/>
<path d="M130.021 156.418C130.943 156.418 131.692 155.674 131.692 154.755C131.692 153.837 130.943 153.093 130.021 153.093C129.098 153.093 128.35 153.837 128.35 154.755C128.35 155.674 129.098 156.418 130.021 156.418Z" fill="#121212"/>
<path d="M194.615 47.0716C190.518 41.6162 183.02 40.2996 179.293 43.0701C175.567 45.8406 174.711 53.369 178.808 58.8244C182.601 63.8741 189.471 65.2513 193.256 63.3594C193.243 63.4185 193.243 63.4793 193.253 63.5387L193.467 64.5882C193.483 64.6682 193.519 64.7428 193.573 64.8048C193.626 64.8668 193.695 64.9142 193.772 64.9425C193.849 64.9708 193.931 64.979 194.012 64.9664C194.094 64.9539 194.17 64.9209 194.235 64.8706L196.041 63.4662C196.106 63.4159 196.157 63.3501 196.189 63.2749C196.22 63.1996 196.233 63.1176 196.224 63.0364C196.215 62.9553 196.185 62.8778 196.137 62.8112C196.09 62.7447 196.026 62.6914 195.952 62.6563L194.98 62.1964C194.946 62.1811 194.91 62.1699 194.873 62.163C197.79 59.0945 198.416 52.1323 194.615 47.0716Z" fill="#595959"/>
<path d="M185.654 45.0121C187.658 45.3288 189.463 46.3991 190.697 48.002C191.931 49.6049 192.5 51.618 192.285 53.6258C192.241 54.0858 192.963 54.0827 193.007 53.6258C193.214 51.4617 192.59 49.2999 191.262 47.5739C189.934 45.8479 187.999 44.6854 185.846 44.3194C185.391 44.2426 185.196 44.9346 185.654 45.0121Z" fill="white"/>
<path d="M53.7725 60.6555C57.3544 54.8522 55.8146 47.4324 51.8508 45.0102C47.8871 42.588 40.5398 44.5771 36.9579 50.3804C33.6424 55.752 34.8938 62.6137 38.0585 65.4142C37.9988 65.4247 37.9417 65.4465 37.8902 65.4784L36.9888 66.0633C36.9201 66.1079 36.864 66.1692 36.8258 66.2415C36.7876 66.3137 36.7686 66.3945 36.7706 66.4761C36.7726 66.5577 36.7955 66.6374 36.8372 66.7077C36.8788 66.778 36.9379 66.8366 37.0087 66.8778L38.9877 68.0297C39.0585 68.0709 39.1387 68.0934 39.2207 68.0951C39.3028 68.0968 39.3839 68.0776 39.4563 68.0394C39.5288 68.0011 39.5902 67.945 39.6348 67.8765C39.6794 67.808 39.7056 67.7292 39.711 67.6478L39.7816 66.5792C39.7832 66.542 39.7804 66.5046 39.7733 66.468C43.7164 68.0319 50.4498 66.0388 53.7725 60.6555Z" fill="#595959"/>
<path d="M52.3866 51.6078C52.831 53.578 52.4982 55.6426 51.457 57.3757C50.4158 59.1088 48.7456 60.3779 46.7911 60.9212C46.3453 61.0504 46.6149 61.7171 47.0578 61.5887C49.1552 60.9805 50.9441 59.6057 52.0655 57.7401C53.1869 55.8744 53.558 53.6559 53.1044 51.5295C53.0083 51.0809 52.2898 51.1559 52.3866 51.6078Z" fill="white"/>
<path d="M227.047 11.8954C226.747 5.09157 221.295 -0.196914 216.648 0.00562846C212.001 0.208171 207.034 5.95078 207.333 12.7546C207.61 19.0523 212.51 24.0392 216.708 24.5954C216.664 24.6374 216.629 24.6873 216.605 24.7423L216.187 25.7293C216.155 25.8045 216.143 25.8866 216.152 25.9677C216.161 26.0489 216.191 26.1263 216.239 26.1928C216.286 26.2593 216.35 26.3126 216.424 26.3476C216.498 26.3826 216.58 26.3982 216.662 26.3929L218.95 26.2442C219.032 26.2389 219.111 26.2128 219.18 26.1685C219.249 26.1242 219.305 26.0631 219.344 25.991C219.382 25.9189 219.401 25.8383 219.4 25.7567C219.398 25.675 219.376 25.5952 219.334 25.5247L218.791 24.6002C218.771 24.5684 218.748 24.539 218.722 24.5127C222.869 23.6106 227.325 18.2068 227.047 11.8954Z" fill="#FF2056"/>
<path d="M101.36 6.42012C96.3372 1.8209 88.7422 1.93684 85.5994 5.36607C82.4566 8.79529 83.0052 16.368 88.028 20.9672C92.6772 25.2244 99.6678 25.2863 103.03 22.7111C103.028 22.7716 103.039 22.8316 103.06 22.888L103.463 23.8811C103.494 23.9568 103.543 24.0233 103.607 24.0743C103.671 24.1253 103.747 24.159 103.827 24.1724C103.908 24.1858 103.991 24.1783 104.068 24.1506C104.145 24.123 104.214 24.0761 104.268 24.0145L105.781 22.2916C105.835 22.2299 105.873 22.1556 105.89 22.0755C105.907 21.9955 105.904 21.9124 105.88 21.8342C105.856 21.756 105.813 21.6853 105.754 21.6287C105.695 21.5722 105.623 21.5317 105.544 21.5112L104.506 21.2414C104.47 21.2328 104.432 21.2285 104.395 21.2287C106.689 17.6585 106.019 10.6865 101.36 6.42012Z" fill="#FF2056"/>
<path d="M220.805 5.17293C222.282 6.55735 223.169 8.45322 223.282 10.4692C223.395 12.4852 222.726 14.4675 221.412 16.0068C221.116 16.3622 221.714 16.7643 222.009 16.4111C223.404 14.7383 224.112 12.6024 223.991 10.4319C223.87 8.26141 222.928 6.21674 221.355 4.70796C221.023 4.38989 220.47 4.8525 220.805 5.17293Z" fill="white"/>
<path d="M92.1926 6.08003C94.216 6.01445 96.1835 6.72813 97.6889 8.07373C99.1944 9.41934 100.123 11.2942 100.283 13.3112C100.324 13.7723 101.032 13.6333 100.991 13.1753C100.794 11.0058 99.7845 8.99495 98.164 7.54588C96.5436 6.0968 94.4321 5.31669 92.253 5.36197C91.7933 5.37189 91.7294 6.09001 92.1926 6.08003Z" fill="white"/>
<path d="M194.213 31.5371C192.422 31.4248 190.683 30.8917 189.138 29.9816C187.594 29.0714 186.289 27.8101 185.329 26.3009C185.06 25.8731 184.709 25.403 184.895 24.8764C184.96 24.6745 185.092 24.5004 185.269 24.3827C185.446 24.265 185.658 24.2105 185.87 24.2282C186.419 24.2947 186.774 24.8291 186.841 25.3411C186.918 25.9218 186.506 26.3778 185.998 26.5936C184.755 27.1209 183.502 26.306 182.49 25.6556C180.184 24.1737 177.648 22.8335 174.854 22.6646C172.269 22.5084 169.497 23.517 168.059 25.7476C167.807 26.1379 168.432 26.4985 168.682 26.1102C170.108 23.8979 172.991 23.1034 175.497 23.4453C176.991 23.6798 178.434 24.1671 179.762 24.886C180.451 25.2417 181.119 25.6361 181.774 26.0507C182.397 26.4832 183.057 26.8599 183.747 27.1763C184.898 27.6466 186.421 27.6098 187.225 26.527C187.975 25.5168 187.395 23.8351 186.141 23.5511C185.866 23.4971 185.582 23.5119 185.314 23.5942C185.046 23.6764 184.803 23.8235 184.606 24.0223C184.409 24.2211 184.265 24.4654 184.186 24.7333C184.108 25.0011 184.097 25.2842 184.156 25.557C184.281 26.1519 184.731 26.7341 185.08 27.2203C186.127 28.6858 187.491 29.8989 189.071 30.7704C190.652 31.6418 192.409 32.1492 194.213 32.2554C194.677 32.2783 194.676 31.5599 194.213 31.5371Z" fill="#121212"/>
<rect y="168" width="259" height="1" fill="#595959"/>
</g>
<defs>
<clipPath id="clip0_72_107">
<rect width="259" height="169" fill="white"/>
</clipPath>
</defs>
</svg>
