<svg width="261" height="180" viewBox="0 0 261 180" fill="none" xmlns="http://www.w3.org/2000/svg">
<g clip-path="url(#clip0_91_168)">
<g filter="url(#filter0_d_91_168)">
<path d="M256.572 1H5.42844C4.25329 1.00225 3.12701 1.47602 2.29678 2.31737C1.46654 3.15872 1.00018 4.2989 1 5.48771V175.52C1.00169 176.708 1.4688 177.846 2.29893 178.686C3.12906 179.526 4.25446 179.998 5.42844 180H256.572C257.746 179.998 258.871 179.526 259.701 178.686C260.531 177.846 260.998 176.708 261 175.52V5.48805C261 4.29974 260.534 3.15997 259.704 2.31869C258.875 1.47741 257.749 1.0033 256.575 1.00034L256.572 1Z" fill="#0F0F0F"/>
</g>
<path d="M202.527 57C201.696 57.0016 200.888 56.7241 200.223 56.2096L200.182 56.1776L191.51 49.3168C191.108 48.9987 190.771 48.6022 190.518 48.1495C190.264 47.697 190.1 47.1973 190.033 46.679C189.967 46.1606 190 45.634 190.131 45.1289C190.261 44.6237 190.487 44.1502 190.795 43.7352C191.103 43.3202 191.486 42.9718 191.924 42.7101C192.363 42.4484 192.846 42.2784 193.348 42.2098C193.849 42.1412 194.359 42.1753 194.848 42.3103C195.336 42.4452 195.795 42.6784 196.196 42.9963L201.814 47.447L215.089 29.5587C215.397 29.1438 215.781 28.7957 216.219 28.5341C216.657 28.2725 217.141 28.1026 217.643 28.0342C218.144 27.9658 218.654 28.0001 219.142 28.1353C219.632 28.2705 220.09 28.5037 220.491 28.8219L220.409 28.9377L220.493 28.8236C221.303 29.4668 221.833 30.4157 221.967 31.4622C222.1 32.5086 221.827 33.5671 221.207 34.4054L205.592 55.4463C205.231 55.9312 204.766 56.3235 204.235 56.5929C203.703 56.8624 203.119 57.0017 202.527 57Z" fill="#FF2056"/>
<path d="M202.527 105C201.696 105.002 200.888 104.724 200.223 104.21L200.182 104.178L191.51 97.3168C191.108 96.9987 190.771 96.6022 190.518 96.1495C190.264 95.697 190.1 95.1973 190.033 94.679C189.967 94.1606 190 93.634 190.131 93.1289C190.261 92.6237 190.487 92.1502 190.795 91.7352C191.103 91.3202 191.486 90.9718 191.924 90.7101C192.363 90.4484 192.846 90.2784 193.348 90.2098C193.849 90.1412 194.359 90.1753 194.848 90.3103C195.336 90.4452 195.795 90.6784 196.196 90.9963L201.814 95.447L215.089 77.5587C215.397 77.1438 215.781 76.7957 216.219 76.5341C216.657 76.2725 217.141 76.1026 217.643 76.0342C218.144 75.9658 218.654 76.0001 219.142 76.1353C219.632 76.2705 220.09 76.5037 220.491 76.8219L220.409 76.9377L220.493 76.8236C221.303 77.4668 221.833 78.4157 221.967 79.4622C222.1 80.5086 221.827 81.5671 221.207 82.4054L205.592 103.446C205.231 103.931 204.766 104.324 204.235 104.593C203.703 104.862 203.119 105.002 202.527 105Z" fill="#FF2056"/>
<path d="M202.527 153C201.696 153.002 200.888 152.724 200.223 152.21L200.182 152.178L191.51 145.317C191.108 144.999 190.771 144.602 190.518 144.15C190.264 143.697 190.1 143.197 190.033 142.679C189.967 142.161 190 141.634 190.131 141.129C190.261 140.624 190.487 140.15 190.795 139.735C191.103 139.32 191.486 138.972 191.924 138.71C192.363 138.448 192.846 138.278 193.348 138.21C193.849 138.141 194.359 138.175 194.848 138.31C195.336 138.445 195.795 138.678 196.196 138.996L201.814 143.447L215.089 125.559C215.397 125.144 215.781 124.796 216.219 124.534C216.657 124.273 217.141 124.103 217.643 124.034C218.144 123.966 218.654 124 219.142 124.135C219.632 124.27 220.09 124.504 220.491 124.822L220.409 124.938L220.493 124.824C221.303 125.467 221.833 126.416 221.967 127.462C222.1 128.509 221.827 129.567 221.207 130.405L205.592 151.446C205.231 151.931 204.766 152.324 204.235 152.593C203.703 152.862 203.119 153.002 202.527 153Z" fill="#595959"/>
<path d="M38.171 32H81.236C82.4474 32 83.6091 32.4804 84.4657 33.3354C85.3223 34.1905 85.8035 35.3502 85.8035 36.5595C85.8035 37.7687 85.3223 38.9284 84.4657 39.7835C83.6091 40.6386 82.4474 41.119 81.236 41.119H38.171C36.9596 41.119 35.7979 40.6386 34.9413 39.7835C34.0847 38.9284 33.6035 37.7687 33.6035 36.5595C33.6035 35.3502 34.0847 34.1905 34.9413 33.3354C35.7979 32.4804 36.9596 32 38.171 32Z" fill="black"/>
<path d="M36.866 45.0271H140.287C141.153 45.0271 141.982 45.3702 142.594 45.981C143.206 46.5917 143.55 47.4201 143.55 48.2839C143.55 49.1476 143.206 49.976 142.594 50.5868C141.982 51.1975 141.153 51.5406 140.287 51.5406H36.866C36.0007 51.5406 35.1709 51.1975 34.5591 50.5868C33.9472 49.976 33.6035 49.1476 33.6035 48.2839C33.6035 47.4201 33.9472 46.5917 34.5591 45.981C35.1709 45.3702 36.0007 45.0271 36.866 45.0271Z" fill="black"/>
<path d="M38.3451 80H106.515C107.714 80 108.865 80.4707 109.713 81.3087C110.561 82.1466 111.037 83.2831 111.037 84.4681C111.037 85.6531 110.561 86.7896 109.713 87.6275C108.865 88.4654 107.714 88.9362 106.515 88.9362H38.3451C37.1456 88.9362 35.9952 88.4654 35.147 87.6275C34.2988 86.7896 33.8223 85.6531 33.8223 84.4681C33.8223 83.2831 34.2988 82.1466 35.147 81.3087C35.9952 80.4707 37.1456 80 38.3451 80Z" fill="black"/>
<path d="M36.866 92.9617H140.287C141.153 92.9617 141.982 93.3048 142.594 93.9156C143.206 94.5263 143.55 95.3547 143.55 96.2184C143.55 97.0822 143.206 97.9106 142.594 98.5213C141.982 99.1321 141.153 99.4752 140.287 99.4752H36.866C36.0007 99.4752 35.1709 99.1321 34.5591 98.5213C33.9472 97.9106 33.6035 97.0822 33.6035 96.2184C33.6035 95.3547 33.9472 94.5263 34.5591 93.9156C35.1709 93.3048 36.0007 92.9617 36.866 92.9617Z" fill="black"/>
<path d="M38.171 127.521H67.835C69.0464 127.521 70.2082 128.002 71.0647 128.857C71.9213 129.712 72.4025 130.872 72.4025 132.081C72.4025 133.29 71.9213 134.45 71.0647 135.305C70.2082 136.16 69.0464 136.64 67.835 136.64H38.171C36.9596 136.64 35.7979 136.16 34.9413 135.305C34.0847 134.45 33.6035 133.29 33.6035 132.081C33.6035 130.872 34.0847 129.712 34.9413 128.857C35.7979 128.002 36.9596 127.521 38.171 127.521Z" fill="black"/>
<path d="M36.866 140.549H140.287C141.153 140.549 141.982 140.892 142.594 141.502C143.206 142.113 143.55 142.942 143.55 143.805C143.55 144.669 143.206 145.497 142.594 146.108C141.982 146.719 141.153 147.062 140.287 147.062H36.866C36.0007 147.062 35.1709 146.719 34.5591 146.108C33.9472 145.497 33.6035 144.669 33.6035 143.805C33.6035 142.942 33.9472 142.113 34.5591 141.502C35.1709 140.892 36.0007 140.549 36.866 140.549Z" fill="black"/>
</g>
<defs>
<filter id="filter0_d_91_168" x="-3" y="1" width="268" height="187" filterUnits="userSpaceOnUse" color-interpolation-filters="sRGB">
<feFlood flood-opacity="0" result="BackgroundImageFix"/>
<feColorMatrix in="SourceAlpha" type="matrix" values="0 0 0 0 0 0 0 0 0 0 0 0 0 0 0 0 0 0 127 0" result="hardAlpha"/>
<feOffset dy="4"/>
<feGaussianBlur stdDeviation="2"/>
<feComposite in2="hardAlpha" operator="out"/>
<feColorMatrix type="matrix" values="0 0 0 0 0 0 0 0 0 0 0 0 0 0 0 0 0 0 0.25 0"/>
<feBlend mode="normal" in2="BackgroundImageFix" result="effect1_dropShadow_91_168"/>
<feBlend mode="normal" in="SourceGraphic" in2="effect1_dropShadow_91_168" result="shape"/>
</filter>
<clipPath id="clip0_91_168">
<rect width="261" height="180" fill="white"/>
</clipPath>
</defs>
</svg>
