<svg width="261" height="180" viewBox="0 0 261 180" fill="none" xmlns="http://www.w3.org/2000/svg">
<path d="M256.572 1H5.42844C4.25329 1.00225 3.12701 1.47602 2.29678 2.31737C1.46654 3.15872 1.00018 4.2989 1 5.48771V175.52C1.00169 176.708 1.4688 177.846 2.29893 178.686C3.12906 179.526 4.25446 179.998 5.42844 180H256.572C257.746 179.998 258.871 179.526 259.701 178.686C260.531 177.846 260.998 176.708 261 175.52V5.48805C261 4.29974 260.534 3.15997 259.704 2.31869C258.875 1.47741 257.749 1.0033 256.575 1.00034L256.572 1Z" fill="#090909"/>
<path d="M202.601 36.2336C201.504 36.2336 200.432 36.5583 199.52 37.1667C198.608 37.775 197.897 38.6397 197.477 39.6514C197.057 40.6631 196.947 41.7763 197.161 42.8503C197.375 43.9243 197.904 44.9108 198.679 45.6851C199.193 46.2008 199.804 46.6097 200.478 46.888C201.151 47.1663 201.873 47.3086 202.601 47.3066H215.651C216.748 47.3067 217.82 46.982 218.733 46.3736C219.645 45.7652 220.356 44.9006 220.775 43.8889C221.195 42.8772 221.305 41.764 221.091 40.69C220.877 39.616 220.349 38.6295 219.573 37.8552C219.059 37.3395 218.448 36.9306 217.775 36.6523C217.102 36.3739 216.38 36.2316 215.651 36.2336H202.601ZM202.601 35.2566H215.651C217.382 35.2566 219.041 35.9428 220.265 37.1644C221.489 38.3859 222.176 40.0426 222.176 41.7701C222.176 43.4976 221.489 45.1544 220.265 46.3759C219.041 47.5974 217.382 48.2837 215.651 48.2837H202.601C200.871 48.2837 199.211 47.5974 197.987 46.3759C196.764 45.1544 196.076 43.4976 196.076 41.7701C196.076 40.0426 196.764 38.3859 197.987 37.1644C199.211 35.9428 200.871 35.2566 202.601 35.2566Z" fill="#595959"/>
<path d="M215.567 37.2107C216.471 37.2107 217.354 37.4781 218.105 37.9791C218.856 38.4801 219.442 39.1922 219.787 40.0253C220.133 40.8585 220.223 41.7752 220.047 42.6597C219.871 43.5441 219.436 44.3566 218.797 44.9942C218.158 45.6319 217.345 46.0661 216.459 46.242C215.573 46.418 214.654 46.3277 213.82 45.9826C212.985 45.6375 212.272 45.0531 211.77 44.3033C211.268 43.5535 211 42.6719 211 41.7702C211 40.5609 211.481 39.4012 212.338 38.5461C213.194 37.6911 214.356 37.2107 215.567 37.2107Z" fill="#595959"/>
<path d="M38.171 32H81.236C82.4474 32 83.6091 32.4804 84.4657 33.3354C85.3223 34.1905 85.8035 35.3502 85.8035 36.5595C85.8035 37.7687 85.3223 38.9284 84.4657 39.7835C83.6091 40.6386 82.4474 41.119 81.236 41.119H38.171C36.9596 41.119 35.7979 40.6386 34.9413 39.7835C34.0847 38.9284 33.6035 37.7687 33.6035 36.5595C33.6035 35.3502 34.0847 34.1905 34.9413 33.3354C35.7979 32.4804 36.9596 32 38.171 32Z" fill="black"/>
<path d="M36.866 45.0271H140.287C141.153 45.0271 141.982 45.3702 142.594 45.981C143.206 46.5917 143.55 47.4201 143.55 48.2839C143.55 49.1476 143.206 49.976 142.594 50.5868C141.982 51.1975 141.153 51.5406 140.287 51.5406H36.866C36.0007 51.5406 35.1709 51.1975 34.5591 50.5868C33.9472 49.976 33.6035 49.1476 33.6035 48.2839C33.6035 47.4201 33.9472 46.5917 34.5591 45.981C35.1709 45.3702 36.0007 45.0271 36.866 45.0271Z" fill="black"/>
<path d="M202.601 84.1682C201.504 84.1682 200.432 84.4929 199.52 85.1012C198.608 85.7096 197.897 86.5743 197.477 87.586C197.057 88.5976 196.947 89.7109 197.161 90.7849C197.375 91.8588 197.904 92.8454 198.679 93.6197C199.193 94.1354 199.804 94.5442 200.478 94.8226C201.151 95.1009 201.873 95.2432 202.601 95.2412H215.651C216.748 95.2412 217.82 94.9165 218.733 94.3082C219.645 93.6998 220.356 92.8351 220.775 91.8234C221.195 90.8118 221.305 89.6985 221.091 88.6245C220.877 87.5506 220.349 86.564 219.573 85.7897C219.059 85.274 218.448 84.8652 217.775 84.5868C217.102 84.3085 216.38 84.1662 215.651 84.1682H202.601ZM202.601 83.1912H215.651C217.382 83.1912 219.041 83.8774 220.265 85.0989C221.489 86.3205 222.176 87.9772 222.176 89.7047C222.176 91.4322 221.489 93.0889 220.265 94.3105C219.041 95.532 217.382 96.2182 215.651 96.2182H202.601C200.871 96.2182 199.211 95.532 197.987 94.3105C196.764 93.0889 196.076 91.4322 196.076 89.7047C196.076 87.9772 196.764 86.3205 197.987 85.0989C199.211 83.8774 200.871 83.1912 202.601 83.1912Z" fill="#595959"/>
<path d="M215.567 85.1453C216.471 85.1453 217.354 85.4127 218.105 85.9137C218.856 86.4147 219.442 87.1268 219.787 87.9599C220.133 88.793 220.223 89.7098 220.047 90.5943C219.871 91.4787 219.436 92.2911 218.797 92.9288C218.158 93.5664 217.345 94.0007 216.459 94.1766C215.573 94.3525 214.654 94.2622 213.82 93.9171C212.985 93.5721 212.272 92.9877 211.77 92.2379C211.268 91.488 211 90.6065 211 89.7047C211 88.4955 211.481 87.3358 212.338 86.4807C213.194 85.6256 214.356 85.1453 215.567 85.1453Z" fill="#595959"/>
<path d="M38.3451 80H106.515C107.714 80 108.865 80.4707 109.713 81.3087C110.561 82.1466 111.037 83.2831 111.037 84.4681C111.037 85.6531 110.561 86.7896 109.713 87.6275C108.865 88.4654 107.714 88.9362 106.515 88.9362H38.3451C37.1456 88.9362 35.9952 88.4654 35.147 87.6275C34.2988 86.7896 33.8223 85.6531 33.8223 84.4681C33.8223 83.2831 34.2988 82.1466 35.147 81.3087C35.9952 80.4707 37.1456 80 38.3451 80Z" fill="black"/>
<path d="M36.866 92.9617H140.287C141.153 92.9617 141.982 93.3048 142.594 93.9156C143.206 94.5263 143.55 95.3547 143.55 96.2184C143.55 97.0822 143.206 97.9106 142.594 98.5213C141.982 99.1321 141.153 99.4752 140.287 99.4752H36.866C36.0007 99.4752 35.1709 99.1321 34.5591 98.5213C33.9472 97.9106 33.6035 97.0822 33.6035 96.2184C33.6035 95.3547 33.9472 94.5263 34.5591 93.9156C35.1709 93.3048 36.0007 92.9617 36.866 92.9617Z" fill="black"/>
<path d="M202.601 131.755C201.504 131.755 200.432 132.08 199.52 132.688C198.608 133.297 197.897 134.161 197.477 135.173C197.057 136.185 196.947 137.298 197.161 138.372C197.375 139.446 197.904 140.433 198.679 141.207C199.193 141.723 199.804 142.131 200.478 142.41C201.151 142.688 201.873 142.83 202.601 142.828H215.651C216.748 142.828 217.82 142.504 218.733 141.895C219.645 141.287 220.356 140.422 220.775 139.411C221.195 138.399 221.305 137.286 221.091 136.212C220.877 135.138 220.349 134.151 219.573 133.377C219.059 132.861 218.448 132.452 217.775 132.174C217.102 131.896 216.38 131.753 215.651 131.755H202.601ZM202.601 130.778H215.651C217.382 130.778 219.041 131.465 220.265 132.686C221.489 133.908 222.176 135.564 222.176 137.292C222.176 139.019 221.489 140.676 220.265 141.898C219.041 143.119 217.382 143.805 215.651 143.805H202.601C200.871 143.805 199.211 143.119 197.987 141.898C196.764 140.676 196.076 139.019 196.076 137.292C196.076 135.564 196.764 133.908 197.987 132.686C199.211 131.465 200.871 130.778 202.601 130.778Z" fill="black"/>
<path d="M202.567 132.732C203.471 132.732 204.354 133 205.105 133.501C205.856 134.002 206.442 134.714 206.787 135.547C207.133 136.38 207.223 137.297 207.047 138.181C206.871 139.066 206.436 139.878 205.797 140.516C205.158 141.154 204.345 141.588 203.459 141.764C202.573 141.94 201.654 141.849 200.82 141.504C199.985 141.159 199.272 140.575 198.77 139.825C198.268 139.075 198 138.194 198 137.292C198 136.083 198.481 134.923 199.338 134.068C200.194 133.213 201.356 132.732 202.567 132.732Z" fill="black"/>
<path d="M38.171 127.521H67.835C69.0464 127.521 70.2082 128.002 71.0647 128.857C71.9213 129.712 72.4025 130.872 72.4025 132.081C72.4025 133.29 71.9213 134.45 71.0647 135.305C70.2082 136.16 69.0464 136.64 67.835 136.64H38.171C36.9596 136.64 35.7979 136.16 34.9413 135.305C34.0847 134.45 33.6035 133.29 33.6035 132.081C33.6035 130.872 34.0847 129.712 34.9413 128.857C35.7979 128.002 36.9596 127.521 38.171 127.521Z" fill="black"/>
<path d="M36.866 140.549H140.287C141.153 140.549 141.982 140.892 142.594 141.502C143.206 142.113 143.55 142.942 143.55 143.805C143.55 144.669 143.206 145.497 142.594 146.108C141.982 146.719 141.153 147.062 140.287 147.062H36.866C36.0007 147.062 35.1709 146.719 34.5591 146.108C33.9472 145.497 33.6035 144.669 33.6035 143.805C33.6035 142.942 33.9472 142.113 34.5591 141.502C35.1709 140.892 36.0007 140.549 36.866 140.549Z" fill="black"/>
</svg>
