<svg width="261" height="180" viewBox="0 0 261 180" fill="none" xmlns="http://www.w3.org/2000/svg">
<g clip-path="url(#clip0_72_164)">
<path d="M256.556 0H4.4443C3.2559 0.0115243 2.12061 0.493126 1.28746 1.33916C0.454312 2.18519 -0.00865932 3.32657 0.000122695 4.5129V175.497C-0.00674806 176.681 0.457141 177.821 1.29015 178.665C2.12316 179.509 3.25736 179.989 4.4443 180H256.556C257.743 179.989 258.877 179.509 259.71 178.665C260.543 177.821 261.007 176.681 261 175.497V4.5129C261.009 3.32668 260.546 2.1854 259.713 1.33939C258.88 0.493373 257.745 0.0116956 256.556 0H256.556Z" fill="#595959"/>
<path d="M249.268 1.03101H4.87388C3.73031 1.03316 2.63431 1.48811 1.82638 2.29602C1.01846 3.10393 0.564624 4.1988 0.564453 5.34036V168.615C0.566093 169.756 1.02065 170.849 1.82847 171.655C2.63629 172.462 3.73145 172.915 4.87388 172.917H249.268C250.41 172.915 251.505 172.462 252.313 171.655C253.121 170.849 253.576 169.756 253.577 168.615V5.34069C253.577 4.19961 253.124 3.10513 252.316 2.29729C251.509 1.48944 250.414 1.03417 249.271 1.03133L249.268 1.03101Z" fill="black"/>
<path d="M202.601 33.2336C201.504 33.2336 200.432 33.5583 199.52 34.1667C198.608 34.775 197.897 35.6397 197.477 36.6514C197.057 37.6631 196.947 38.7763 197.161 39.8503C197.375 40.9243 197.904 41.9108 198.679 42.6851C199.193 43.2008 199.804 43.6097 200.478 43.888C201.151 44.1663 201.873 44.3086 202.601 44.3066H215.651C216.748 44.3067 217.82 43.982 218.733 43.3736C219.645 42.7652 220.356 41.9006 220.775 40.8889C221.195 39.8772 221.305 38.764 221.091 37.69C220.877 36.616 220.349 35.6295 219.573 34.8552C219.059 34.3395 218.448 33.9306 217.775 33.6523C217.102 33.3739 216.38 33.2316 215.651 33.2336H202.601ZM202.601 32.2566H215.651C217.382 32.2566 219.041 32.9428 220.265 34.1644C221.489 35.3859 222.176 37.0426 222.176 38.7701C222.176 40.4976 221.489 42.1544 220.265 43.3759C219.041 44.5974 217.382 45.2837 215.651 45.2837H202.601C200.871 45.2837 199.211 44.5974 197.987 43.3759C196.764 42.1544 196.076 40.4976 196.076 38.7701C196.076 37.0426 196.764 35.3859 197.987 34.1644C199.211 32.9428 200.871 32.2566 202.601 32.2566Z" fill="#FF2056"/>
<path d="M214.999 34.2107C215.903 34.2107 216.786 34.4781 217.537 34.9791C218.288 35.4801 218.873 36.1922 219.219 37.0253C219.565 37.8585 219.655 38.7752 219.479 39.6597C219.303 40.5441 218.868 41.3566 218.229 41.9942C217.59 42.6319 216.776 43.0661 215.89 43.242C215.004 43.418 214.086 43.3277 213.251 42.9826C212.417 42.6375 211.703 42.0531 211.201 41.3033C210.7 40.5535 210.432 39.6719 210.432 38.7702C210.432 37.5609 210.913 36.4012 211.769 35.5461C212.626 34.6911 213.788 34.2107 214.999 34.2107Z" fill="#FF2056"/>
<path d="M38.171 29H81.236C82.4474 29 83.6091 29.4804 84.4657 30.3354C85.3223 31.1905 85.8035 32.3502 85.8035 33.5595C85.8035 34.7687 85.3223 35.9284 84.4657 36.7835C83.6091 37.6386 82.4474 38.119 81.236 38.119H38.171C36.9596 38.119 35.7979 37.6386 34.9413 36.7835C34.0847 35.9284 33.6035 34.7687 33.6035 33.5595C33.6035 32.3502 34.0847 31.1905 34.9413 30.3354C35.7979 29.4804 36.9596 29 38.171 29Z" fill="#595959"/>
<path d="M36.866 42.0271H140.287C141.153 42.0271 141.982 42.3702 142.594 42.981C143.206 43.5917 143.55 44.4201 143.55 45.2839C143.55 46.1476 143.206 46.976 142.594 47.5868C141.982 48.1975 141.153 48.5406 140.287 48.5406H36.866C36.0007 48.5406 35.1709 48.1975 34.5591 47.5868C33.9472 46.976 33.6035 46.1476 33.6035 45.2839C33.6035 44.4201 33.9472 43.5917 34.5591 42.981C35.1709 42.3702 36.0007 42.0271 36.866 42.0271Z" fill="#121212"/>
<path d="M202.601 81.1682C201.504 81.1682 200.432 81.4929 199.52 82.1012C198.608 82.7096 197.897 83.5743 197.477 84.586C197.057 85.5976 196.947 86.7109 197.161 87.7849C197.375 88.8588 197.904 89.8454 198.679 90.6197C199.193 91.1354 199.804 91.5442 200.478 91.8226C201.151 92.1009 201.873 92.2432 202.601 92.2412H215.651C216.748 92.2412 217.82 91.9165 218.733 91.3082C219.645 90.6998 220.356 89.8351 220.775 88.8234C221.195 87.8118 221.305 86.6985 221.091 85.6245C220.877 84.5506 220.349 83.564 219.573 82.7897C219.059 82.274 218.448 81.8652 217.775 81.5868C217.102 81.3085 216.38 81.1662 215.651 81.1682H202.601ZM202.601 80.1912H215.651C217.382 80.1912 219.041 80.8774 220.265 82.0989C221.489 83.3205 222.176 84.9772 222.176 86.7047C222.176 88.4322 221.489 90.0889 220.265 91.3105C219.041 92.532 217.382 93.2182 215.651 93.2182H202.601C200.871 93.2182 199.211 92.532 197.987 91.3105C196.764 90.0889 196.076 88.4322 196.076 86.7047C196.076 84.9772 196.764 83.3205 197.987 82.0989C199.211 80.8774 200.871 80.1912 202.601 80.1912Z" fill="#595959"/>
<path d="M203.03 82.1453C203.934 82.1453 204.817 82.4127 205.568 82.9137C206.319 83.4147 206.905 84.1268 207.25 84.9599C207.596 85.793 207.686 86.7098 207.51 87.5943C207.334 88.4787 206.899 89.2911 206.26 89.9288C205.621 90.5664 204.807 91.0007 203.921 91.1766C203.035 91.3525 202.117 91.2622 201.282 90.9171C200.448 90.5721 199.735 89.9877 199.233 89.2378C198.731 88.488 198.463 87.6065 198.463 86.7047C198.463 85.4955 198.944 84.3358 199.801 83.4807C200.657 82.6256 201.819 82.1453 203.03 82.1453Z" fill="#595959"/>
<path d="M38.3451 77H106.515C107.714 77 108.865 77.4707 109.713 78.3087C110.561 79.1466 111.037 80.2831 111.037 81.4681C111.037 82.6531 110.561 83.7896 109.713 84.6275C108.865 85.4654 107.714 85.9362 106.515 85.9362H38.3451C37.1456 85.9362 35.9952 85.4654 35.147 84.6275C34.2988 83.7896 33.8223 82.6531 33.8223 81.4681C33.8223 80.2831 34.2988 79.1466 35.147 78.3087C35.9952 77.4707 37.1456 77 38.3451 77Z" fill="#595959"/>
<path d="M36.866 89.9617H140.287C141.153 89.9617 141.982 90.3048 142.594 90.9156C143.206 91.5263 143.55 92.3547 143.55 93.2184C143.55 94.0822 143.206 94.9106 142.594 95.5213C141.982 96.1321 141.153 96.4752 140.287 96.4752H36.866C36.0007 96.4752 35.1709 96.1321 34.5591 95.5213C33.9472 94.9106 33.6035 94.0822 33.6035 93.2184C33.6035 92.3547 33.9472 91.5263 34.5591 90.9156C35.1709 90.3048 36.0007 89.9617 36.866 89.9617Z" fill="#121212"/>
<path d="M202.601 128.755C201.504 128.755 200.432 129.08 199.52 129.688C198.608 130.297 197.897 131.161 197.477 132.173C197.057 133.185 196.947 134.298 197.161 135.372C197.375 136.446 197.904 137.433 198.679 138.207C199.193 138.723 199.804 139.131 200.478 139.41C201.151 139.688 201.873 139.83 202.601 139.828H215.651C216.748 139.828 217.82 139.504 218.733 138.895C219.645 138.287 220.356 137.422 220.775 136.411C221.195 135.399 221.305 134.286 221.091 133.212C220.877 132.138 220.349 131.151 219.573 130.377C219.059 129.861 218.448 129.452 217.775 129.174C217.102 128.896 216.38 128.753 215.651 128.755H202.601ZM202.601 127.778H215.651C217.382 127.778 219.041 128.465 220.265 129.686C221.489 130.908 222.176 132.564 222.176 134.292C222.176 136.019 221.489 137.676 220.265 138.898C219.041 140.119 217.382 140.805 215.651 140.805H202.601C200.871 140.805 199.211 140.119 197.987 138.898C196.764 137.676 196.076 136.019 196.076 134.292C196.076 132.564 196.764 130.908 197.987 129.686C199.211 128.465 200.871 127.778 202.601 127.778Z" fill="#FF2056"/>
<path d="M215.651 129.732C216.555 129.732 217.438 130 218.189 130.501C218.94 131.002 219.526 131.714 219.871 132.547C220.217 133.38 220.307 134.297 220.131 135.181C219.955 136.066 219.52 136.878 218.881 137.516C218.242 138.154 217.429 138.588 216.543 138.764C215.657 138.94 214.738 138.849 213.904 138.504C213.069 138.159 212.356 137.575 211.854 136.825C211.352 136.075 211.084 135.194 211.084 134.292C211.084 133.083 211.565 131.923 212.422 131.068C213.278 130.213 214.44 129.732 215.651 129.732Z" fill="#FF2056"/>
<path d="M38.171 124.521H67.835C69.0464 124.521 70.2082 125.002 71.0647 125.857C71.9213 126.712 72.4025 127.872 72.4025 129.081C72.4025 130.29 71.9213 131.45 71.0647 132.305C70.2082 133.16 69.0464 133.64 67.835 133.64H38.171C36.9596 133.64 35.7979 133.16 34.9413 132.305C34.0847 131.45 33.6035 130.29 33.6035 129.081C33.6035 127.872 34.0847 126.712 34.9413 125.857C35.7979 125.002 36.9596 124.521 38.171 124.521Z" fill="#595959"/>
<path d="M36.866 137.549H140.287C141.153 137.549 141.982 137.892 142.594 138.502C143.206 139.113 143.55 139.942 143.55 140.805C143.55 141.669 143.206 142.497 142.594 143.108C141.982 143.719 141.153 144.062 140.287 144.062H36.866C36.0007 144.062 35.1709 143.719 34.5591 143.108C33.9472 142.497 33.6035 141.669 33.6035 140.805C33.6035 139.942 33.9472 139.113 34.5591 138.502C35.1709 137.892 36.0007 137.549 36.866 137.549Z" fill="#121212"/>
</g>
<defs>
<clipPath id="clip0_72_164">
<rect width="261" height="180" fill="white"/>
</clipPath>
</defs>
</svg>
